# xmcd
#
# Track frame offsets:
#	150
#	14810
#	27332
#	44249
#	59913
#	79655
#	97876
#	113598
#	130376
#	146155
#
# Disc length: 2137 seconds
#
# Revision: 0
# Processed by: cddbd v1.5.2PL0 Copyright (c) Steve Scherf et al.
# Submitted via: EZCDAudioConverter 2.1.7.1
#
DISCID=9408570a
DTITLE=Erica Sunshine Lee - Road to Recovery
DYEAR=2009
DGENRE=Country
TTITLE0=Grandpa's Whiskey
TTITLE1=You Won't Get To Me
TTITLE2=12 Miles Apart
TTITLE3=Back in Georgia 	
TTITLE4=City Sunset
TTITLE5=Broken Promises 	
TTITLE6=Pressing Rewind
TTITLE7=Demolition
TTITLE8=Not Hard To Replace 	
TTITLE9=The Walk of Shame 	
EXTD=
EXTT0=
EXTT1=
EXTT2=
EXTT3=
EXTT4=
EXTT5=
EXTT6=
EXTT7=
EXTT8=
EXTT9=
PLAYORDER=
